<?xml version="1.0" standalone="no"?>
<!DOCTYPE svg PUBLIC "-//W3C//DTD SVG 20010904//EN"
 "http://www.w3.org/TR/2001/REC-SVG-20010904/DTD/svg10.dtd">
<svg version="1.0" xmlns="http://www.w3.org/2000/svg"
 width="96.000000pt" height="96.000000pt" viewBox="0 0 96.000000 96.000000"
 preserveAspectRatio="xMidYMid meet">
<metadata>
Created by potrace 1.14, written by Peter Selinger 2001-2017
</metadata>
<g transform="translate(0.000000,96.000000) scale(0.100000,-0.100000)"
fill="#000000" stroke="none">
<path d="M530 846 c-186 -64 -318 -153 -378 -255 -23 -40 -27 -57 -27 -126 0
-70 4 -86 28 -127 15 -26 45 -62 67 -79 22 -18 37 -36 34 -41 -3 -4 -28 -20
-55 -33 -54 -28 -55 -29 -36 -73 l13 -31 48 25 c162 82 303 254 362 442 14 46
14 47 -37 56 -25 4 -29 0 -49 -56 -38 -106 -141 -258 -173 -258 -25 0 -88 55
-107 94 -55 115 9 231 180 320 83 43 215 90 234 83 20 -8 65 -87 93 -165 48
-132 38 -279 -23 -352 -53 -63 -138 -86 -198 -55 -16 9 -30 14 -31 13 -1 -2
-11 -17 -23 -34 l-22 -32 43 -20 c30 -15 58 -20 102 -18 246 10 342 314 193
611 -41 82 -94 145 -121 145 -12 -1 -65 -16 -117 -34z"/>
</g>
</svg>
