<?xml version="1.0" standalone="no"?>
<!DOCTYPE svg PUBLIC "-//W3C//DTD SVG 20010904//EN"
 "http://www.w3.org/TR/2001/REC-SVG-20010904/DTD/svg10.dtd">
<svg version="1.0" xmlns="http://www.w3.org/2000/svg"
 width="149.000000pt" height="149.000000pt" viewBox="0 0 149.000000 149.000000"
 preserveAspectRatio="xMidYMid meet">
<metadata>
Created by potrace 1.14, written by Peter Selinger 2001-2017
</metadata>
<g transform="translate(0.000000,149.000000) scale(0.100000,-0.100000)"
fill="#000000" stroke="none">
<path d="M256 1119 l-260 -260 375 -375 374 -374 375 375 375 375 -262 262
-262 262 -112 -113 -113 -112 -111 111 c-60 60 -112 110 -115 110 -3 -1 -122
-118 -264 -261z m380 -5 l33 -32 -185 -185 -184 -185 -58 57 c-31 32 -63 65
-71 75 -13 16 2 34 168 200 l182 182 41 -40 c22 -23 56 -55 74 -72z m522 -75
l181 -182 -295 -294 c-336 -337 -285 -310 -390 -203 l-54 54 222 223 223 223
-110 110 -110 110 70 70 c38 38 72 70 76 70 3 0 88 -82 187 -181z m-333 -109
l70 -70 -180 -180 c-99 -99 -184 -180 -190 -180 -11 0 -136 120 -138 132 -3
10 345 366 358 367 6 1 42 -31 80 -69z"/>
</g>
</svg>
